{
  "accessors": [
    {
      "bufferView": 2,
      "componentType": 5126,
      "count": 9928,
      "max": [
        25.900470733642578,
        12.034760475158691,
        23.917068481445312
      ],
      "min": [
        -25.903112411499023,
        -21.15021324157715,
        0.24728399515151978
      ],
      "type": "VEC3",
      "byteOffset": 0
    },
    {
      "bufferView": 2,
      "byteOffset": 119136,
      "componentType": 5126,
      "count": 9928,
      "max": [
        1,
        1,
        1
      ],
      "min": [
        -1,
        -1,
        -1
      ],
      "type": "VEC3"
    },
    {
      "bufferView": 3,
      "componentType": 5126,
      "count": 9928,
      "max": [
        1,
        0.9999994039535522,
        0.9999940395355225,
        1
      ],
      "min": [
        -0.9999995231628418,
        -0.9999994039535522,
        -0.9999940395355225,
        -1
      ],
      "type": "VEC4",
      "byteOffset": 0
    },
    {
      "bufferView": 1,
      "componentType": 5126,
      "count": 9928,
      "max": [
        0.997281014919281,
        0.9947050213813782
      ],
      "min": [
        0.009379000402987003,
        0.027434999123215675
      ],
      "type": "VEC2",
      "byteOffset": 0
    },
    {
      "bufferView": 0,
      "componentType": 5125,
      "count": 53388,
      "type": "SCALAR",
      "byteOffset": 0
    },
    {
      "bufferView": 2,
      "byteOffset": 238272,
      "componentType": 5126,
      "count": 4372,
      "max": [
        21.86016845703125,
        10.665632247924805,
        22.45307159423828
      ],
      "min": [
        -20.720903396606445,
        -15.281632423400879,
        8.9988374710083
      ],
      "type": "VEC3"
    },
    {
      "bufferView": 2,
      "byteOffset": 290736,
      "componentType": 5126,
      "count": 4372,
      "max": [
        1,
        1,
        0.9999914765357971
      ],
      "min": [
        -1,
        -1,
        -1
      ],
      "type": "VEC3"
    },
    {
      "bufferView": 3,
      "byteOffset": 158848,
      "componentType": 5126,
      "count": 4372,
      "max": [
        0.9997521638870239,
        1,
        1,
        1
      ],
      "min": [
        -1,
        -1,
        -1,
        -1
      ],
      "type": "VEC4"
    },
    {
      "bufferView": 1,
      "byteOffset": 79424,
      "componentType": 5126,
      "count": 4372,
      "max": [
        0.993012011051178,
        0.983053982257843
      ],
      "min": [
        -0.17398199439048767,
        -0.11841899901628494
      ],
      "type": "VEC2"
    },
    {
      "bufferView": 0,
      "byteOffset": 213552,
      "componentType": 5125,
      "count": 23304,
      "type": "SCALAR"
    }
  ],
  "asset": {
    "extras": {
      "author": "CoryRichards (https://sketchfab.com/CoryRichards)",
      "license": "CC-BY-4.0 (http://creativecommons.org/licenses/by/4.0/)",
      "source": "https://sketchfab.com/3d-models/gamecube-controller-21983501bac64993ac09cdc7936ffdf2",
      "title": "Gamecube Controller"
    },
    "generator": "Sketchfab-12.65.0",
    "version": "2.0"
  },
  "bufferViews": [
    {
      "buffer": 0,
      "byteLength": 306768,
      "name": "floatBufferViews",
      "target": 34963,
      "byteOffset": 0
    },
    {
      "buffer": 0,
      "byteLength": 114400,
      "byteOffset": 306768,
      "byteStride": 8,
      "name": "floatBufferViews",
      "target": 34962
    },
    {
      "buffer": 0,
      "byteLength": 343200,
      "byteOffset": 421168,
      "byteStride": 12,
      "name": "floatBufferViews",
      "target": 34962
    },
    {
      "buffer": 0,
      "byteLength": 228800,
      "byteOffset": 764368,
      "byteStride": 16,
      "name": "floatBufferViews",
      "target": 34962
    },
    {
      "buffer": 0,
      "byteOffset": 993168,
      "byteLength": 40997
    },
    {
      "buffer": 0,
      "byteOffset": 1034168,
      "byteLength": 89217
    },
    {
      "buffer": 0,
      "byteOffset": 1123392,
      "byteLength": 73212
    }
  ],
  "buffers": [
    {
      "name": "controller",
      "byteLength": 1196608,
      "uri": "data:application/octet-stream;base64,"
    }
  ],
  "images": [
    {
      "name": "phong2SG_baseColor",
      "bufferView": 4,
      "mimeType": "image/png"
    },
    {
      "name": "phong2SG_metallicRoughness",
      "bufferView": 5,
      "mimeType": "image/png"
    },
    {
      "name": "phong2SG_normal",
      "bufferView": 6,
      "mimeType": "image/png"
    }
  ],
  "materials": [
    {
      "doubleSided": true,
      "name": "phong2SG",
      "normalTexture": {
        "index": 2,
        "texCoord": 0
      },
      "pbrMetallicRoughness": {
        "baseColorTexture": {
          "index": 0,
          "texCoord": 0
        },
        "metallicFactor": 0,
        "metallicRoughnessTexture": {
          "index": 1,
          "texCoord": 0
        },
        "baseColorFactor": [
          1,
          1,
          1,
          1
        ],
        "roughnessFactor": 1
      },
      "emissiveFactor": [
        0,
        0,
        0
      ],
      "alphaMode": "OPAQUE"
    }
  ],
  "meshes": [
    {
      "name": "Object_0",
      "primitives": [
        {
          "attributes": {
            "NORMAL": 1,
            "POSITION": 0,
            "TANGENT": 2,
            "TEXCOORD_0": 3
          },
          "indices": 4,
          "material": 0,
          "mode": 4
        }
      ]
    },
    {
      "name": "Object_1",
      "primitives": [
        {
          "attributes": {
            "NORMAL": 6,
            "POSITION": 5,
            "TANGENT": 7,
            "TEXCOORD_0": 8
          },
          "indices": 9,
          "material": 0,
          "mode": 4
        }
      ]
    }
  ],
  "nodes": [
    {
      "children": [
        1
      ],
      "matrix": [
        1,
        0,
        0,
        0,
        0,
        2.220446049250313e-16,
        -1,
        0,
        0,
        1,
        2.220446049250313e-16,
        0,
        0,
        0,
        0,
        1
      ],
      "name": "Sketchfab_model"
    },
    {
      "children": [
        2,
        3
      ],
      "name": "GameCube_Controller_OBJ_High.obj.cleaner.materialmerger.gles"
    },
    {
      "mesh": 0,
      "name": "Object_2"
    },
    {
      "mesh": 1,
      "name": "Object_3"
    }
  ],
  "samplers": [
    {
      "magFilter": 9729,
      "minFilter": 9987,
      "wrapS": 10497,
      "wrapT": 10497
    }
  ],
  "scene": 0,
  "scenes": [
    {
      "name": "Sketchfab_Scene",
      "nodes": [
        0
      ]
    }
  ],
  "textures": [
    {
      "sampler": 0,
      "source": 0
    },
    {
      "sampler": 0,
      "source": 1
    },
    {
      "sampler": 0,
      "source": 2
    }
  ]
}
